<mxfile host="app.diagrams.net" modified="2024-05-24T07:45:39.770Z" agent="Mozilla/5.0 (Macintosh; Intel Mac OS X 10_15_7) AppleWebKit/537.36 (KHTML, like Gecko) Chrome/125.0.0.0 Safari/537.36" version="24.4.7" etag="EjppyLYvOYQcKFkFMihn" type="github">
  <diagram name="第 1 页" id="kvmF9LXAz6XlTX56MM4j">
    <mxGraphModel>
      <root>
        <mxCell id="0" />
        <mxCell id="1" parent="0" />
      </root>
    </mxGraphModel>
  </diagram>
</mxfile>
